<mxfile host="app.diagrams.net" modified="2022-07-05T07:24:25.919Z" agent="5.0 (Macintosh; Intel Mac OS X 10_15_7) AppleWebKit/537.36 (KHTML, like Gecko) Chrome/103.0.5060.53 Safari/537.36" etag="cixDc2kxJ8G9s_K9fId9" version="20.0.4" type="github">
  <diagram id="hpNy010NWrhV0YCVr90P" name="Page-1">
    <mxGraphModel dx="1234" dy="1910" grid="1" gridSize="10" guides="1" tooltips="1" connect="1" arrows="1" fold="1" page="1" pageScale="1" pageWidth="827" pageHeight="1169" math="0" shadow="0">
      <root>
        <mxCell id="0" />
        <mxCell id="1" parent="0" />
        <mxCell id="qeUAbDFx0oPw4TJynA0D-3" value="" style="endArrow=classic;html=1;rounded=0;endFill=1;" parent="1" edge="1">
          <mxGeometry width="50" height="50" relative="1" as="geometry">
            <mxPoint x="80" y="280" as="sourcePoint" />
            <mxPoint x="1180" y="280" as="targetPoint" />
          </mxGeometry>
        </mxCell>
        <mxCell id="qeUAbDFx0oPw4TJynA0D-4" value="" style="endArrow=classic;html=1;rounded=0;" parent="1" edge="1">
          <mxGeometry width="50" height="50" relative="1" as="geometry">
            <mxPoint x="80" y="280" as="sourcePoint" />
            <mxPoint x="80" y="-420" as="targetPoint" />
          </mxGeometry>
        </mxCell>
        <mxCell id="qeUAbDFx0oPw4TJynA0D-5" value="1&amp;nbsp; &amp;nbsp; &amp;nbsp; &amp;nbsp; &amp;nbsp; 2&amp;nbsp; &amp;nbsp; &amp;nbsp; &amp;nbsp; &amp;nbsp; 3&amp;nbsp; &amp;nbsp; &amp;nbsp; &amp;nbsp; &amp;nbsp; 4&amp;nbsp; &amp;nbsp; &amp;nbsp; &amp;nbsp; &amp;nbsp; 5&amp;nbsp; &amp;nbsp; &amp;nbsp; &amp;nbsp; &amp;nbsp; 6&amp;nbsp; &amp;nbsp; &amp;nbsp; &amp;nbsp; &amp;nbsp; 7&amp;nbsp; &amp;nbsp; &amp;nbsp; &amp;nbsp; &amp;nbsp; 8&amp;nbsp; &amp;nbsp; &amp;nbsp; &amp;nbsp; &amp;nbsp; 9&amp;nbsp; &amp;nbsp; &amp;nbsp; &amp;nbsp; &amp;nbsp; 10&amp;nbsp; &amp;nbsp; &amp;nbsp; &amp;nbsp;11&amp;nbsp; &amp;nbsp; &amp;nbsp; &amp;nbsp; 12&amp;nbsp; &amp;nbsp; &amp;nbsp; &amp;nbsp; 13&amp;nbsp; &amp;nbsp; &amp;nbsp; &amp;nbsp;14&amp;nbsp; &amp;nbsp; &amp;nbsp; &amp;nbsp; 15&amp;nbsp; &amp;nbsp; &amp;nbsp; &amp;nbsp; 16&amp;nbsp; &amp;nbsp; &amp;nbsp; &amp;nbsp; &amp;nbsp;17&amp;nbsp; &amp;nbsp; &amp;nbsp; &amp;nbsp; 18&amp;nbsp; &amp;nbsp; &amp;nbsp; &amp;nbsp; 19&amp;nbsp; &amp;nbsp; &amp;nbsp; &amp;nbsp; 20&amp;nbsp; &amp;nbsp; &amp;nbsp; &amp;nbsp; &amp;nbsp;21&amp;nbsp; &amp;nbsp; &amp;nbsp; &amp;nbsp; 22&amp;nbsp; &amp;nbsp; &amp;nbsp; &amp;nbsp; 23&amp;nbsp; &amp;nbsp; &amp;nbsp; &amp;nbsp; 24&amp;nbsp; &amp;nbsp; &amp;nbsp; &amp;nbsp; 25" style="text;html=1;strokeColor=none;fillColor=none;align=left;verticalAlign=middle;whiteSpace=wrap;rounded=0;spacingRight=10;" parent="1" vertex="1">
          <mxGeometry x="116" y="284" width="1054" height="30" as="geometry" />
        </mxCell>
        <mxCell id="qeUAbDFx0oPw4TJynA0D-6" value="&lt;p style=&quot;line-height: 1.65;&quot;&gt;15&lt;br&gt;&lt;br&gt;14&lt;br&gt;&lt;br&gt;13&lt;br&gt;&lt;br&gt;12&lt;br&gt;&lt;br&gt;11&lt;br&gt;&lt;br&gt;10&lt;br&gt;&lt;br&gt;9&lt;br&gt;&lt;br&gt;8&lt;br&gt;&lt;br&gt;7&lt;br&gt;&lt;br&gt;6&lt;br&gt;&lt;br&gt;5&lt;br&gt;&lt;br&gt;4&lt;br&gt;&lt;br&gt;3&lt;br&gt;&lt;br&gt;2&lt;/p&gt;&lt;p style=&quot;line-height: 1.4;&quot;&gt;&lt;br&gt;&lt;span style=&quot;background-color: initial;&quot;&gt;1&lt;/span&gt;&lt;/p&gt;&lt;p&gt;&lt;/p&gt;" style="text;html=1;strokeColor=none;fillColor=none;align=center;verticalAlign=bottom;whiteSpace=wrap;rounded=0;horizontal=1;" parent="1" vertex="1">
          <mxGeometry x="16" y="-500" width="60" height="769" as="geometry" />
        </mxCell>
        <mxCell id="qeUAbDFx0oPw4TJynA0D-7" value="" style="rounded=0;whiteSpace=wrap;html=1;fillColor=#dae8fc;strokeColor=#6c8ebf;" parent="1" vertex="1">
          <mxGeometry x="200" y="-320" width="160" height="600" as="geometry" />
        </mxCell>
        <mxCell id="qeUAbDFx0oPw4TJynA0D-9" value="" style="rounded=0;whiteSpace=wrap;html=1;fillColor=#f8cecc;strokeColor=#b85450;" parent="1" vertex="1">
          <mxGeometry x="680" y="-120" width="200" height="400" as="geometry" />
        </mxCell>
        <mxCell id="qeUAbDFx0oPw4TJynA0D-10" value="" style="rounded=0;whiteSpace=wrap;html=1;fillColor=#e1d5e7;strokeColor=#9673a6;" parent="1" vertex="1">
          <mxGeometry x="840" y="-40" width="200" height="320" as="geometry" />
        </mxCell>
        <mxCell id="qeUAbDFx0oPw4TJynA0D-8" value="" style="rounded=0;whiteSpace=wrap;html=1;fillColor=#d5e8d4;strokeColor=#82b366;" parent="1" vertex="1">
          <mxGeometry x="280" y="-200" width="280" height="480" as="geometry" />
        </mxCell>
        <mxCell id="qeUAbDFx0oPw4TJynA0D-2" value="" style="rounded=0;whiteSpace=wrap;html=1;fillColor=#ffe6cc;strokeColor=#d79b00;" parent="1" vertex="1">
          <mxGeometry x="160" y="-120" width="280" height="400" as="geometry" />
        </mxCell>
      </root>
    </mxGraphModel>
  </diagram>
</mxfile>
